<svg width="48" height="49" viewBox="0 0 48 49" fill="none" xmlns="http://www.w3.org/2000/svg"><rect y="0.5" width="48" height="48" rx="24" fill="#F7F6FD"></rect><path d="M26.4703 26.5297C26.6156 26.675 26.8078 26.75 27 26.75C27.1922 26.75 27.3838 26.6768 27.5302 26.5303L30.5302 23.5302C30.8231 23.2373 30.8231 22.7624 30.5302 22.4699L27.5302 19.4699C27.2372 19.177 26.7623 19.177 26.4698 19.4699C26.1773 19.7629 26.1769 20.2378 26.4698 20.5302L28.9406 23L26.4708 25.4698C26.175 25.7609 26.175 26.2391 26.4703 26.5297ZM21.5297 19.4703C21.2367 19.1773 20.7619 19.1773 20.4694 19.4703L17.4694 22.4703C17.1764 22.7633 17.1764 23.2381 17.4694 23.5306L20.4694 26.5306C20.6156 26.675 20.8078 26.75 21 26.75C21.1922 26.75 21.3838 26.6768 21.5302 26.5303C21.8231 26.2373 21.8231 25.7624 21.5302 25.4699L19.0594 23L21.5292 20.5302C21.825 20.2391 21.825 19.7609 21.5297 19.4703ZM12.75 29C13.1644 29 13.5 28.6625 13.5 28.25V17C13.5 16.1722 14.1731 15.5 15 15.5H33C33.8269 15.5 34.5 16.1722 34.5 17V28.25C34.5 28.6646 34.8354 29 35.25 29C35.6646 29 36 28.6646 36 28.25V17C36 15.3463 34.6547 14 33 14H15C13.3453 14 12 15.3463 12 17V28.25C12 28.6625 12.3356 29 12.75 29ZM38.25 30.5H9.75C9.33984 30.5 9 30.8422 9 31.25V32C9 33.6523 10.3477 35 12 35H36C37.6523 35 39 33.6523 39 32V31.25C39 30.8422 38.6625 30.5 38.25 30.5ZM36 33.5H12C11.1731 33.5 10.5 32.8269 10.5 32H37.5C37.5 32.825 36.825 33.5 36 33.5Z" fill="black"></path></svg>