<svg width="48" height="49" viewBox="0 0 48 49" fill="none" xmlns="http://www.w3.org/2000/svg"><rect y="0.5" width="48" height="48" rx="24" fill="#F7F6FD"></rect><g clip-path="url(#clip0_651_70276)"><path d="M33.3855 23.2451C33.4235 23.1999 33.4538 23.1396 33.4766 23.0793L36.3481 14.5399C36.3937 14.4269 36.4317 14.3138 36.462 14.1932C36.462 14.1857 36.462 14.1706 36.462 14.1631C36.5836 13.5677 36.3937 12.9496 35.9607 12.5276C35.5277 12.1055 34.8896 11.9095 34.2743 12.0452C34.2515 12.0452 34.2363 12.0452 34.2135 12.0603C34.1299 12.0829 34.054 12.1055 33.9856 12.1356L25.6219 14.8715C25.1965 14.9695 24.8546 15.1429 24.5888 15.4142L18.504 21.4438L13.5435 20.6599C13.5435 20.6599 13.4751 20.6599 13.4371 20.6599C12.9054 20.577 12.3736 20.7504 11.9938 21.1347C11.3405 21.7829 11.3329 22.8305 11.9634 23.4863C11.971 23.5013 11.9862 23.5164 12.0014 23.5315L14.1968 25.7097L13.5967 26.3051C12.7534 27.1417 12.761 28.4983 13.5967 29.3274L14.3107 30.0359L14.2348 30.1791C14.1284 30.3826 14.1664 30.6237 14.3335 30.7895L17.4709 33.9023C17.6304 34.0606 17.8811 34.0983 18.0862 34.0003L18.2305 33.9249L18.975 34.6635C19.3852 35.0705 19.9245 35.2891 20.5018 35.2891C21.0792 35.2891 21.6185 35.0705 22.0211 34.6635L22.4997 34.1887L24.7255 36.397C24.7255 36.397 24.7635 36.4347 24.7863 36.4422C24.8015 36.4649 24.8242 36.4875 24.8394 36.5025C25.1585 36.8191 25.5839 36.9924 26.0397 36.9924C26.4955 36.9924 26.9209 36.8191 27.2399 36.5025C27.6881 36.0579 27.84 35.4172 27.6653 34.8218C27.6653 34.7992 27.6653 34.7766 27.6653 34.7615L26.8829 29.855L33.0132 23.7727C33.1652 23.6219 33.2867 23.4486 33.3931 23.2451H33.3855ZM12.5559 23.0943C12.5559 23.0943 12.5331 23.0567 12.518 23.0416C12.5028 23.0265 12.4876 23.0114 12.4724 23.0039C12.1077 22.6195 12.1153 22.009 12.4952 21.6246C12.7382 21.3835 13.0801 21.2855 13.4143 21.3608C13.4599 21.3684 13.5055 21.3759 13.5511 21.3608L17.8963 22.0467L14.7057 25.2122L12.5635 23.0868L12.5559 23.0943ZM26.9437 34.7389C26.9285 34.8067 26.9361 34.8821 26.9589 34.9424C27.1108 35.3117 27.0272 35.7338 26.7386 36.0126C26.5486 36.2011 26.298 36.299 26.0397 36.299C25.7738 36.299 25.5231 36.1935 25.3408 36.0126C25.3256 35.9976 25.318 35.9825 25.3028 35.9674L25.2648 35.9147C25.2269 35.8694 25.1813 35.8318 25.1357 35.8091L23.0391 33.729L26.2752 30.5182L26.9437 34.7238V34.7389ZM32.4815 22.6949C32.4207 22.8305 32.3448 22.9436 32.2612 23.034L21.2767 33.9324C21.0716 34.1359 20.7905 34.249 20.5018 34.249C20.3879 34.249 20.2816 34.2339 20.1828 34.2038C20.084 34.1736 19.9853 34.1284 19.8941 34.0681C19.8334 34.0304 19.7802 33.9852 19.727 33.9324L18.7167 32.9225C18.6179 32.8245 18.4812 32.7718 18.3444 32.7718C18.2609 32.7718 18.1849 32.7944 18.109 32.8321L17.9646 32.9074L15.3666 30.3298L15.4426 30.1866C15.5489 29.9831 15.511 29.7419 15.3438 29.5761L14.3563 28.5963C13.9233 28.1667 13.9233 27.4733 14.3563 27.0512L25.3256 16.1528C25.4548 16.0247 25.6295 15.9418 25.8726 15.889C25.8877 15.889 25.9105 15.8815 25.9257 15.874L34.335 13.123C34.335 13.123 34.3654 13.1154 34.373 13.1079C34.4034 13.0928 34.4338 13.0853 34.4718 13.0778C34.4794 13.0778 34.487 13.0778 34.5022 13.0778C34.768 13.0175 35.0415 13.0928 35.2314 13.2813C35.4137 13.4621 35.4897 13.7109 35.4441 13.9596V13.9747C35.4289 14.0349 35.4137 14.0877 35.3909 14.148C35.3909 14.1631 35.3757 14.1857 35.3682 14.2008L32.5347 22.6421C32.5347 22.6421 32.5119 22.6873 32.4967 22.71L32.4815 22.6949Z" fill="black"></path><path d="M22.5985 24.6394C22.2338 24.2776 21.7553 24.0817 21.2463 24.0817C20.7373 24.0817 20.2512 24.2776 19.8941 24.6394L17.5468 26.9683C16.8024 27.7069 16.8024 28.9128 17.5468 29.659L18.6559 30.7594C19.0205 31.1212 19.4991 31.3171 20.0081 31.3171C20.517 31.3171 21.0032 31.1212 21.3602 30.7594L23.7075 28.4305C24.0722 28.0687 24.2697 27.5939 24.2697 27.0889C24.2697 26.5839 24.0722 26.1016 23.7075 25.7473L22.5985 24.6469V24.6394ZM22.9631 27.6843L20.6158 30.0132C20.4563 30.1715 20.236 30.2619 20.0081 30.2619C19.7802 30.2619 19.5599 30.1715 19.4003 30.0132L18.2913 28.9128C17.957 28.5812 17.957 28.0386 18.2913 27.7069L20.6386 25.378C20.7981 25.2197 21.0184 25.1293 21.2463 25.1293C21.4742 25.1293 21.6945 25.2197 21.854 25.378L22.9631 26.4784C23.1226 26.6367 23.2138 26.8553 23.2138 27.0814C23.2138 27.3075 23.1226 27.526 22.9631 27.6843Z" fill="black"></path><path d="M28.3794 18.7681C27.9464 18.5345 27.4602 18.4139 26.9588 18.4139C26.1536 18.4139 25.3939 18.7229 24.8242 19.2957C24.2545 19.861 23.9354 20.6147 23.9354 21.4211C23.9354 22.2276 24.2469 22.9737 24.8242 23.5465C25.4015 24.1193 26.1536 24.4208 26.9588 24.4208C27.764 24.4208 28.5237 24.1118 29.101 23.539C29.6708 22.9737 29.9898 22.22 29.9898 21.4136C29.9898 20.6147 29.6784 19.861 29.101 19.2957C28.8883 19.0847 28.6452 18.9038 28.387 18.7681H28.3794ZM28.349 22.8004C27.9767 23.1697 27.483 23.3732 26.9512 23.3732C26.4271 23.3732 25.9333 23.1697 25.5611 22.8004C25.1888 22.4311 24.9837 21.9412 24.9837 21.4136C24.9837 20.886 25.1888 20.4036 25.5611 20.0268C25.9333 19.6575 26.4271 19.454 26.9512 19.454C27.4754 19.454 27.9692 19.6575 28.349 20.0268C28.7212 20.3961 28.9263 20.886 28.9263 21.406C28.9263 21.9261 28.7212 22.416 28.349 22.7928V22.8004Z" fill="black"></path></g><defs><clipPath id="clip0_651_70276"><rect width="25" height="25" fill="white" transform="translate(11.5 12)"></rect></clipPath></defs></svg>