<svg width="48" height="49" viewBox="0 0 48 49" fill="none" xmlns="http://www.w3.org/2000/svg"><rect y="0.5" width="48" height="48" rx="24" fill="#F7F6FD"></rect><path d="M27 34.5H21V32.5H27V34.5ZM27 31.5H21L20.777 29.5C20.657 28.8385 20.4586 28.1936 20.186 27.579C19.832 27.079 19.463 26.652 19.106 26.235C17.7941 25.0053 17.0347 23.2978 17 21.5C17 17.634 20.134 14.5 24 14.5C27.866 14.5 31 17.634 31 21.5C30.9593 23.2868 30.2057 24.9831 28.907 26.211L28.89 26.231C28.534 26.648 28.166 27.08 27.819 27.575C27.5466 28.1912 27.3476 28.8373 27.226 29.5L27 31.5ZM24 16.5C21.2399 16.5033 19.0033 18.7399 19 21.5C19 23.044 19.644 23.793 20.618 24.928C20.988 25.36 21.408 25.848 21.818 26.419C22.3156 27.3858 22.6555 28.4259 22.825 29.5H25.176C25.3499 28.429 25.6892 27.3916 26.182 26.425C26.582 25.854 27.001 25.363 27.37 24.931L27.385 24.913C28.357 23.773 29 23.02 29 21.5C28.9967 18.7399 26.7601 16.5033 24 16.5Z" fill="black"></path></svg>