<svg width="48" height="49" viewBox="0 0 48 49" fill="none" xmlns="http://www.w3.org/2000/svg"><rect y="0.5" width="48" height="48" rx="24" fill="#F7F6FD"></rect><path d="M14 16.5V30.5L18.8 26.9C19.1458 26.6396 19.5671 26.4992 20 26.5H28C29.1046 26.5 30 25.6046 30 24.5V16.5C30 15.3954 29.1046 14.5 28 14.5H16C14.8954 14.5 14 15.3954 14 16.5ZM16 26.5V16.5H28V24.5H19.334C18.9011 24.4988 18.4796 24.6393 18.134 24.9L16 26.5Z" fill="black"></path><path d="M34 34.5V21.5C34 20.3954 33.1046 19.5 32 19.5V30.5L29.866 28.9C29.5204 28.6393 29.0989 28.4988 28.666 28.5H19C19 29.6046 19.8954 30.5 21 30.5H28C28.4329 30.4992 28.8542 30.6396 29.2 30.9L34 34.5Z" fill="black"></path></svg>